<svg width="2039" height="3314" viewBox="0 0 2039 3314" fill="none" xmlns="http://www.w3.org/2000/svg">
<path d="M975.216 20.0039C975.216 20.0039 830.716 717.504 526.716 793.004C222.716 868.504 -1.78369 646.504 21.7163 453.504C45.2163 260.504 202.716 267.504 311.716 318.004C420.716 368.504 689.216 625.504 1031.72 717.504C1374.22 809.504 1502.72 574.004 1680.22 683.504C1857.72 793.004 1657.72 1075.5 1657.72 1075.5C1657.72 1075.5 1501.72 1356.5 1321.22 1376C1140.72 1395.5 835.716 1240.5 592.716 1376C349.716 1511.5 280.716 1677.5 345.216 1905C409.716 2132.5 554.216 2154 726.716 2175.5C899.216 2197 953.716 2029.5 1207.22 2132.5C1460.72 2235.5 1407.72 2943 1608.22 2980.5C1808.72 3018 2087.54 2579 2002.54 2456.5C1917.54 2334 1399.54 2767.5 1162.04 2787.5C924.538 2807.5 907.716 2697.5 655.216 2733C402.716 2768.5 138.216 2959.5 234.216 3154C330.216 3348.5 606.038 3022 835.038 3002C1064.04 2982 1046.54 3294 1046.54 3294" stroke="white" stroke-width="40" stroke-linecap="round"/>
</svg>
